<svg xmlns="http://www.w3.org/2000/svg" viewBox="0 0 200 56" fill="none">
  <g transform="translate(4,4) scale(0.05)">
    <path fill="#0D9488" d="M50.8.8 1 1 .9 37.8v99.1l.1 62.3 1.5 9.2c1.6 10.4 4.5 20.3 8.3 29.1 4.4 10.4 13.8 25.6 21.9 35.7 11.5 14.3 49.2 61.1 50.6 62.8 1.1 1.5 39.4 49.5 48.7 61.1 3.9 4.9 28.3 35 41.2 50.9 2.4 3 14.9 18.8 27.8 35 12.8 16.2 26.8 33.7 30.9 38.9 4.2 5.2 8.7 10.8 10.1 12.5 1.3 1.7 8.5 10.6 16 19.7 7.4 9.2 19.4 24.1 26.5 33.2 7.2 9.2 13.6 16.6 14.3 16.7.9 0 1.2-1 .8-3.2-.3-1.8-.8-10.7-1.2-19.8-.9-23.7 1.2-44.7 6.6-65.9 6.5-25.6 19.1-53.5 31.4-69.8 12.2-16 27.5-29.8 43-38.8l1.7-1-14.3-17.5c-7.9-9.6-17.2-20.9-20.7-25-6.2-7.3-28.2-33.9-32.9-39.6-1.3-1.6-5.5-6.8-9.4-11.7l-7.1-8.7-1.6 1.2c-3.5 2.8-28 23.9-35 30.2l-7.4 6.6-2.4-2.9c-1.3-1.6-10.6-13.2-20.6-25.8-22.2-27.9-44.2-55.5-54.5-68.3-18.9-23.3-38.4-48.9-40.2-52.8-3.6-7.6-4.2-13.4-3.8-36.3.2-12 .7-22.2 1.2-22.6.4-.4 12.1-.8 25.9-.8h25.2l4.1 2.2c4.6 2.4 11.1 9.2 24.1 25 4.8 5.9 14.2 17 20.8 24.7 6.6 7.8 14 16.6 16.5 19.6 5.4 6.6 11.8 14.4 18 21.5 2.5 2.8 9.7 11.4 16 19s13.3 16 15.5 18.5c10.7 12.5 21.1 24.9 64.2 76.5 21.9 26.1 35.6 42.4 38 45 1 1.1 4.1 4.7 6.8 8 2.6 3.3 9.4 11.3 14.9 17.9 5.6 6.5 11.2 13.3 12.6 15.1 2.4 3.1 30.2 36.1 55.5 65.9 6.6 7.8 14 16.7 16.5 19.8 2.5 3.2 5 5.7 5.5 5.8 2.4.1 14.4-23.1 19.9-38.2 3.8-10.4 6.2-19.2 7.8-27.8 2.7-15.5 4.6-33.8 4.6-45 0-12.9-.3-16.2-3.9-41-1.2-8-2.1-15.2-2.1-16.1s-2-4.1-4.5-7c-2.5-3-14.4-17.1-26.4-31.4-37.8-45.3-54.9-65.5-72.9-86.6-9.7-11.2-23.3-27.2-30.2-35.4-6.9-8.3-15.4-18.4-18.9-22.5s-12.2-14.5-19.3-23-13.2-15.7-13.6-16c-.3-.3-5.8-6.8-12.2-14.5-45.4-54.9-58.8-70.9-65-77.2-3.9-4-10.9-9.8-15.5-12.9-10.7-7.2-27-14.5-39.3-17.5l-9.5-2.4L156 1C125.5.7 78.1.6 50.8.8m723.7.2-112 .6-8.5 2.1c-4.7 1.2-11 3.1-14 4.3-11.2 4.4-26.8 13.3-34 19.3-4 3.4-10.6 10.2-14.6 15.2-11.6 14.3-19.3 30.7-23.2 49.5l-1.6 7.5-.2 115.8-.2 115.8 5.1 6.2c2.8 3.4 6.9 8.2 9.1 10.7 2.3 2.5 5.7 6.5 7.6 9 1.9 2.4 6.2 7.6 9.5 11.5 3.3 4 17.3 20.6 31 36.9 24.3 28.9 33.9 40.4 41.4 49.5 2 2.5 8.6 10.3 14.6 17.4l11 13 .7-10.9c.3-6 .6-85.1.6-175.7 0-122.9.3-165.2 1.1-166 .8-.9 10.3-1.3 31.1-1.5l30-.3v214.8l.1 214.8 6 7c3.4 3.8 10.6 12.4 16.2 19 9.1 10.9 13.9 16.5 33.2 39.1 3.3 3.9 7.8 9.3 10 11.9 2.2 2.7 8.1 9.7 13.1 15.5 4.9 5.8 14.6 17.2 21.5 25.4 6.8 8.1 15.9 18.9 20.1 24 4.3 5 7.8 9.4 7.8 9.8 0 .5.5.8 1 .8.7 0 1-119.3 1-355.9 0-283.9-.3-356-1.2-356.2-.7-.2-51.7-.2-113.3.1M1 620.4V960h105.8c66.8 0 108.8-.4 114-1 16.8-2.1 33.1-7.8 47.2-16.2 12.4-7.5 27.8-22.3 35.4-33.8 9.1-13.8 15-28.3 18-44.1.9-4.7 1.7-15 1.8-22.9.2-8 .2-47.6 0-88l-.2-73.5-15-18.5c-8.3-10.2-20.6-25.5-27.3-34-6.6-8.5-16.6-21.1-22.2-27.9-5.5-6.8-11.1-13.8-12.5-15.5-1.3-1.7-10.3-13-19.9-25.1-23.9-30-31.1-38.6-32.2-37.9-.5.3-.9 64.1-.9 152.8v152.4l-1.4 1.1c-1 .9-9.6 1.1-30.7.9l-29.4-.3-.3-193.3L131 442l-8.3-10.3c-4.5-5.7-12.3-15.5-17.2-21.8C76.3 373.1 2.6 281.4 1.9 281.2 1.4 281 1 422.4 1 620.4m571.5-212c0 18.2-.5 26.9-1.9 35.6-3 19.6-6.9 34.2-13.3 50-4.5 11.2-13.2 27.6-19.6 36.9-10.6 15.3-29.9 33-47.4 43.5-3.5 2.1-6.3 4.1-6.3 4.4 0 .4 2.5 3.9 5.6 7.7 3.1 3.9 11.6 14.4 18.9 23.5 7.2 9.1 16.7 20.9 21.1 26.2 4.3 5.3 12.5 15.4 18.1 22.5 5.6 7 12.2 15 14.6 17.8l4.4 4.9 1.6-1.6c1-.9 7.6-6.3 14.9-12s15.9-12.8 19.3-15.8 8-7.2 10.4-9.4l4.3-3.9 1.8 1.9c1.1 1.1 5.4 6.2 9.7 11.5s18.4 22.1 31.3 37.4c25.5 30.1 49.1 58.2 55.5 66 2.2 2.6 6.3 7.6 9.2 10.9 20 23.6 25.5 30.6 27.2 34.1 2.3 4.7 5.9 18.3 6.3 24l.3 4h-101l-5.8-2.3c-6.3-2.6-14.6-10-23.3-20.8-2.7-3.4-29.2-36.4-58.9-73.4s-57.8-72.1-62.5-78c-7.9-10-42-52.3-68.1-84.5-30-37.1-57.9-71.6-62.1-77-2.6-3.3-8.1-10.4-12.3-15.8-4.2-5.3-8-9.7-8.5-9.7-1.3 0-13.3 25.1-16.9 35.4-3.9 11-7.5 25.1-9.8 38.1-1.4 7.9-1.7 15.6-1.7 36.5l.1 26.5 2.6 18c1.5 9.9 3.2 19.8 3.8 21.9 1 3.8 5.7 9.9 37.5 49.6 5 6.3 12.8 16 17.3 21.5s13.5 16.7 19.9 25c6.4 8.2 14.8 18.8 18.7 23.5s9.7 11.9 13 16 6.7 8.4 7.6 9.5c3.9 4.6 87.8 110.2 95.1 119.7 7.5 9.5 23.5 24.9 33.1 31.6 11.1 7.8 28.8 15 44.7 18.4l6.5 1.3h261l.2-80.5c.1-45.9-.3-83.7-.8-88-.5-4.1-2.1-12.5-3.6-18.5-2-8.5-4.2-14.1-9.4-24.5-3.8-7.4-8.8-16-11.1-19.1-4.4-5.9-30.6-37.5-33-40-.8-.8-11.9-13.8-24.7-28.9-26-30.8-58.5-69.1-76.6-90.4-53.1-62.4-73.7-87.1-74.4-88.9-.2-.7-1.5-2-2.9-3.1-1.3-1.1-4.3-4.3-6.6-7.1-2.2-2.9-12-14.5-21.6-25.9-24.8-29.5-36.1-43-43.3-51.8-3.4-4.2-6.6-7.9-7.2-8.1-.7-.3-1 8-1 23.7"/>
  </g>
  <text x="58" y="27" font-family="'Plus Jakarta Sans', 'Inter', system-ui, sans-serif" font-weight="600" font-size="24" fill="#1C1917" dominant-baseline="central">NorBot</text>
</svg>